<svg width="22" height="22" viewBox="0 0 12 12" fill="#000000" xmlns="http://www.w3.org/2000/svg">
  <path d="M1.14226 0C1.26124 0 1.36623 0.0404081 1.45862 0.12L7.86282 5.72327C7.95381 5.80286 8 5.89592 8 6C8 6.10408 7.95381 6.19592 7.86282 6.27673L1.45722 11.88C1.36623 11.9596 1.25984 12 1.14086 12C1.02187 12 0.916885 11.9596 0.824497 11.88L0.137183 11.2788C0.0461943 11.1992 0 11.1061 0 11.002C0 10.898 0.0461943 10.8061 0.137183 10.7253L5.54051 6L0.138583 1.27469C0.0475942 1.1951 0.00139991 1.10204 0.00139991 0.997959C0.00139991 0.893878 0.0475942 0.802041 0.138583 0.721225L0.825897 0.12C0.916886 0.0404081 1.02187 0 1.14226 0Z" fill="#000000"/>
</svg>
